<svg width="30" height="30" viewBox="0 0 30 30" fill="none" xmlns="http://www.w3.org/2000/svg">
<path fill-rule="evenodd" clip-rule="evenodd" d="M17.3515 20.7524C20.2745 20.4072 23.3833 19.3444 23.3833 14.2958C23.3833 12.8609 22.878 11.6914 22.055 10.7879C22.1878 10.4428 22.6125 9.14057 21.8948 7.33395C21.8948 7.33395 20.832 6.98836 18.3347 8.66221C17.2719 8.37023 16.1029 8.18391 15.0135 8.18391C13.8971 8.18391 12.7277 8.37023 11.6914 8.66221C9.16705 6.98836 8.10428 7.33395 8.10428 7.33395C7.38703 9.14057 7.8123 10.4428 7.94502 10.7879C7.12113 11.6914 6.61629 12.8609 6.61629 14.2958C6.61629 19.3444 9.7251 20.4072 12.648 20.7524C12.2763 21.0718 11.9308 21.6824 11.798 22.5329C11.0538 22.8515 9.11397 23.4629 7.94502 21.4435C7.94502 21.4435 7.25391 20.1949 5.95213 20.1152C5.95213 20.1152 4.64994 20.0887 5.8459 20.9116C5.8459 20.9116 6.72246 21.3108 7.3074 22.8249C7.3074 22.8249 8.10428 25.3496 11.771 24.5522V26.8106C11.771 27.1567 11.5056 27.5549 10.8414 27.4487C5.63314 25.7213 1.88672 20.7789 1.88672 14.9865C1.88672 7.73221 7.75875 1.86023 15.0135 1.86023C22.2408 1.86023 28.1398 7.73227 28.1133 14.9865C28.1133 20.7789 24.3664 25.6948 19.1585 27.4487C18.4939 27.5815 18.2285 27.1833 18.2285 26.8106V23.1709C18.2285 21.9479 17.8294 21.1515 17.3515 20.7524ZM30 15.0135C30 6.72246 23.2771 0 15.0135 0C6.72246 0 0 6.72246 0 15.0135C0 23.2771 6.72246 30 15.0135 30C23.2771 30 30 23.2771 30 15.0135Z" fill="#0D2636"/>
</svg>
