<svg xmlns="http://www.w3.org/2000/svg" viewBox="0 0 30 30"><defs><style>.cls-1{fill:none;stroke:#000;stroke-miterlimit:10;stroke-width:1.5px;}</style></defs><g id="Layer_2" data-name="Layer 2"><g id="Layer_1-2" data-name="Layer 1"><path d="M15,3A12,12,0,1,1,3,15,12,12,0,0,1,15,3m0-3A15,15,0,1,0,30,15,15,15,0,0,0,15,0Z"/><polyline class="cls-1" points="1 14.5 7.04 14.5 14.77 14.5 23.33 14.5 29 14.5"/><polyline class="cls-1" points="1.79 10 7.75 10 14.77 10 22.62 10 28.21 10"/><polyline class="cls-1" points="14.75 0.01 14.75 5.5 14.75 10 14.75 14.5 14.75 19 14.75 23.5 14.75 29.99"/><polyline class="cls-1" points="4.17 5.5 9.27 5.5 14.77 5.5 21.11 5.5 25.83 5.5"/><polyline class="cls-1" points="1.5 19 7.08 19 14.77 19 23.29 19 28.5 19"/><polyline class="cls-1" points="3.47 23.5 7.82 23.5 14.77 23.5 22.56 23.5 26.53 23.5"/><path class="cls-1" d="M11,2A12.67,12.67,0,0,0,8.86,5.5,26.34,26.34,0,0,0,7.24,10L7,11a25.73,25.73,0,0,0-.48,8,28.11,28.11,0,0,0,.79,4.5,21,21,0,0,0,2,4.36"/><path class="cls-1" d="M19,2c1,1.35,1.58,1.46,2.54,3.5A26.34,26.34,0,0,1,23.16,10l.24,1a26,26,0,0,1,.52,3.5,25.9,25.9,0,0,1,0,4.5,28.11,28.11,0,0,1-.79,4.5,20.38,20.38,0,0,1-1.85,4.14"/></g></g></svg>