<svg xmlns="http://www.w3.org/2000/svg" viewBox="0 0 100 150"><defs><style>.cls-1{fill:#b30000;}.cls-2{fill:#fefefe;}.cls-3{fill:#b50606;}</style></defs><g id="Layer_2" data-name="Layer 2"><g id="Layer_1-2" data-name="Layer 1"><path class="cls-1" d="M.09,75.12c0-23.78,0-47.56,0-71.34C0,1.27,0,0,3.41,0,34.49.21,65.56.16,96.64,0c2.72,0,3.35.49,3.34,3.3q-.17,71.58,0,143.17c0,3.2-.92,3.48-3.67,3.47Q50,149.83,3.6,150C.68,150,0,149.48,0,146.45.16,122.67.09,98.89.09,75.12Zm10-.09c0,20.3.08,40.6-.08,60.89,0,3.27.86,4.11,4.11,4.09q35.91-.21,71.82,0c3.29,0,4.08-.9,4.07-4.12Q89.82,75,90,14.12c0-3.27-.85-4.11-4.1-4.09Q50,10.24,14.07,10c-3.29,0-4.1.9-4.07,4.12C10.14,34.44,10.07,54.74,10.07,75Z"/><path class="cls-2" d="M10.07,75c0-20.29.07-40.59-.07-60.88,0-3.22.78-4.14,4.07-4.12q35.91.22,71.82,0c3.25,0,4.11.82,4.1,4.09Q89.82,75,90,135.89c0,3.22-.78,4.14-4.07,4.12Q50,139.8,14.1,140c-3.25,0-4.13-.82-4.11-4.09C10.15,115.63,10.07,95.33,10.07,75ZM50.43,13.09C40,13.09,29.48,13.24,19,13c-3.36-.08-4.11,1-4,4.16.2,9.47.25,19,0,28.43-.11,3.51,1.19,4.07,4.25,4,14.8-.13,29.59,0,44.38,0,11.44,0,11.28,0,11.44,11.21.06,3.58-1,4.34-4.41,4.31-17.28-.19-34.57,0-51.86-.2-3.84,0-4.13,1.73-3.66,4.43.39,2.22-2,5.82,3.3,5.77,21.1-.19,42.21-.13,63.32,0,2.71,0,3.31-.84,3.28-3.38-.14-9.48-.21-19,0-28.44.08-3.24-1.08-3.82-4-3.79-14.63.13-29.26.06-43.88.06-12.27,0-12.14,0-12.19-12.47,0-3.34,1-4.07,4.16-4,17.29.15,34.58-.13,51.86.2,4.7.09,3.92-2.43,4-5.2.07-2.94.39-5.25-4.13-5.07C70.72,13.37,60.57,13.09,50.43,13.09ZM50,136.47c10.32,0,20.63-.07,30.94.05,2.76,0,4.13-.3,4.1-3.69-.19-17-.22-34,0-50.92,0-4.23-2.47-3.53-4.81-3.38S74.61,77,74.87,81.85c.29,5.48,0,11,.11,16.47.06,2.32-.52,3.2-3,3.18q-21.94-.15-43.91,0c-2.46,0-3.11-.8-3-3.15.15-5.49-.2-11,.12-16.47.25-4.28-2.52-3.46-4.83-3.35S14.8,77.08,15,81.89c.29,8.31.27,16.64,0,25-.12,3.63.7,4.83,4.58,4.76,15-.25,29.94-.1,44.91-.1,10.59,0,10.44,0,10.57,10.59,0,3.44-.82,4.46-4.35,4.42-17-.2-33.94.06-50.9-.19-4.08-.06-5,1.26-4.82,5,.14,3.32.08,5.44,4.61,5.26C29.69,136.19,39.85,136.47,50,136.47Z"/><path class="cls-3" d="M50.43,13.09c10.14,0,20.29.28,30.41-.13C85.36,12.78,85,15.09,85,18c-.07,2.77.71,5.29-4,5.2-17.28-.33-34.57-.05-51.86-.2-3.17,0-4.17.7-4.16,4,.05,12.47-.08,12.47,12.19,12.47,14.62,0,29.25.07,43.88-.06,2.91,0,4.07.55,4,3.79-.23,9.47-.16,19,0,28.44,0,2.54-.57,3.4-3.28,3.38-21.11-.11-42.22-.17-63.32,0-5.35,0-2.91-3.55-3.3-5.77-.47-2.7-.18-4.48,3.66-4.43,17.29.25,34.58,0,51.86.2,3.42,0,4.47-.73,4.41-4.31-.16-11.21,0-11.21-11.44-11.21-14.79,0-29.58-.08-44.38,0-3.06,0-4.36-.53-4.25-4,.27-9.47.22-19,0-28.43-.07-3.17.68-4.24,4-4.16C29.48,13.24,40,13.09,50.43,13.09Z"/><path class="cls-3" d="M50,136.47c-10.14,0-20.3-.28-30.43.13-4.53.18-4.47-1.94-4.61-5.26-.17-3.76.74-5.08,4.82-5,17,.25,33.93,0,50.9.19,3.53,0,4.39-1,4.35-4.42-.13-10.59,0-10.59-10.57-10.59-15,0-29.94-.15-44.91.1-3.88.07-4.7-1.13-4.58-4.76.28-8.31.3-16.64,0-25-.17-4.81,3-3.25,5.33-3.36s5.08-.93,4.83,3.35c-.32,5.47,0,11-.12,16.47-.07,2.35.58,3.17,3,3.15q22-.15,43.91,0c2.5,0,3.08-.86,3-3.18-.14-5.49.18-11-.11-16.47C74.61,77,78,78.68,80.22,78.53s4.86-.85,4.81,3.38c-.22,17-.19,34,0,50.92,0,3.39-1.34,3.72-4.1,3.69C70.62,136.4,60.31,136.47,50,136.47Z"/></g></g></svg>